<svg width="20" height="20" viewBox="0 0 20 20" fill="none" xmlns="http://www.w3.org/2000/svg">
<path d="M17.7914 1.17285H2.88398C2.30189 1.17349 1.74383 1.40501 1.33223 1.8166C0.920631 2.2282 0.689116 2.78626 0.688477 3.36835V13.614C0.689116 14.1961 0.920631 14.7542 1.33223 15.1658C1.74383 15.5773 2.30189 15.8089 2.88398 15.8095C3.07804 15.8097 3.26412 15.8868 3.40134 16.024C3.53855 16.1612 3.61569 16.3473 3.61581 16.5413V18.1015C3.61581 18.3664 3.68772 18.6264 3.82386 18.8536C3.95999 19.0809 4.15526 19.267 4.38884 19.3919C4.62241 19.517 4.88554 19.5762 5.15015 19.5634C5.41477 19.5506 5.67094 19.4663 5.89138 19.3193L10.9714 15.9325C11.0914 15.852 11.2327 15.8092 11.3773 15.8095H14.945C15.4244 15.8086 15.8904 15.6515 16.2725 15.362C16.6547 15.0725 16.932 14.6664 17.0626 14.2051L19.9098 3.95652C19.9996 3.63019 20.013 3.28752 19.9487 2.95519C19.8845 2.62285 19.7445 2.30982 19.5395 2.04046C19.3345 1.77111 19.0701 1.55268 18.7669 1.4022C18.4638 1.25172 18.13 1.17323 17.7914 1.17285ZM18.4982 3.56778L15.6524 13.8127C15.6084 13.9664 15.5156 14.1015 15.388 14.1977C15.2603 14.2939 15.1048 14.3459 14.945 14.3459H11.3773C10.9437 14.3453 10.5198 14.4737 10.1594 14.7146L5.07948 18.1015V16.5413C5.07884 15.9592 4.84733 15.4012 4.43573 14.9896C4.02413 14.578 3.46607 14.3465 2.88398 14.3459C2.68992 14.3458 2.50384 14.2686 2.36662 14.1314C2.22941 13.9942 2.15226 13.8081 2.15214 13.614V3.36835C2.15226 3.1743 2.22941 2.98822 2.36662 2.85099C2.50384 2.71378 2.68992 2.63664 2.88398 2.63652H17.7914C17.9046 2.6368 18.016 2.66319 18.1174 2.71362C18.2186 2.76405 18.3068 2.83716 18.3753 2.92727C18.4436 3.01738 18.4903 3.12205 18.5116 3.23314C18.533 3.34424 18.5284 3.45875 18.4982 3.56778Z" fill="#5D5FEF"/>
<path d="M5.07949 7.75945H8.7387C8.93279 7.75945 9.11887 7.68234 9.25618 7.5451C9.3934 7.40785 9.47053 7.22171 9.47053 7.02761C9.47053 6.83352 9.3934 6.64738 9.25618 6.51012C9.11887 6.37288 8.93279 6.29578 8.7387 6.29578H5.07949C4.8854 6.29578 4.69925 6.37288 4.562 6.51012C4.42476 6.64738 4.34766 6.83352 4.34766 7.02761C4.34766 7.22171 4.42476 7.40785 4.562 7.5451C4.69925 7.68234 4.8854 7.75945 5.07949 7.75945Z" fill="#5D5FEF"/>
<path d="M11.666 9.22314H5.07949C4.8854 9.22314 4.69925 9.30019 4.562 9.43749C4.42476 9.57471 4.34766 9.76088 4.34766 9.95497C4.34766 10.1491 4.42476 10.3351 4.562 10.4724C4.69925 10.6097 4.8854 10.6868 5.07949 10.6868H11.666C11.8601 10.6868 12.0463 10.6097 12.1835 10.4724C12.3207 10.3351 12.3978 10.1491 12.3978 9.95497C12.3978 9.76088 12.3207 9.57471 12.1835 9.43749C12.0463 9.30019 11.8601 9.22314 11.666 9.22314Z" fill="#5D5FEF"/>
</svg>
