<svg width="188" height="52" viewBox="0 0 188 52" fill="none" xmlns="http://www.w3.org/2000/svg">
<g clip-path="url(#clip0_2521_2900)">
<path fill-rule="evenodd" clip-rule="evenodd" d="M153.438 29.9952C153.921 30.4384 154.248 30.9397 154.522 31.4781C154.842 32.1024 155.042 32.7661 155.091 33.4646C155.188 34.8291 155.274 36.196 154.989 37.5536C154.849 38.2104 154.603 38.8114 154.135 39.322C153.527 39.9834 152.942 40.6703 152.357 41.3526C152.253 41.4779 152.164 41.6357 152.118 41.7912C152.037 42.0928 152.153 42.2507 152.468 42.3156C152.482 42.318 152.499 42.3203 152.513 42.3226C152.923 42.4015 153.025 42.5013 152.96 42.7519C152.875 43.0861 152.466 43.3367 152.176 43.2346C151.953 43.1557 151.775 43.0072 151.735 42.7891C151.679 42.4758 151.61 42.1439 151.67 41.8399C151.744 41.4384 151.911 41.0462 152.09 40.6749C152.357 40.118 152.661 39.5796 152.97 39.0435C153.315 38.4355 153.418 37.7718 153.483 37.0964C153.501 36.9201 153.436 36.804 153.283 36.7182C152.888 36.5023 152.475 36.3701 152.018 36.4652C151.895 36.4907 151.772 36.5186 151.654 36.5534C150.607 36.8713 149.946 37.6464 149.25 38.4726C149.405 38.5144 149.503 38.5492 149.602 38.5654C149.927 38.6211 150.252 38.6815 150.582 38.7209C151.28 38.8068 151.937 38.7372 152.459 38.0386C152.482 38.2127 152.533 38.3194 152.499 38.3867C152.104 39.2059 151.693 40.0182 151.269 40.8722C150.858 40.6865 150.477 40.5148 150.094 40.3431C149.324 39.9973 148.521 39.9462 147.702 40.0994C147.323 40.169 146.987 40.3431 146.729 40.6285C146.502 40.8768 146.37 41.1437 146.479 41.508C146.56 41.7842 146.569 42.0836 146.572 42.3736C146.572 42.492 146.5 42.6382 146.411 42.7287C146.24 42.8981 146.005 42.8587 145.917 42.6359C145.845 42.4572 145.815 42.246 145.827 42.0557C145.855 41.5568 146.029 41.095 146.284 40.6633C146.616 40.1064 146.948 39.5471 147.284 38.9901C147.498 38.635 147.588 38.2568 147.565 37.8437C147.551 37.5722 147.456 37.3703 147.138 37.2867C146.934 37.5304 146.787 37.853 146.437 37.969C146.147 37.173 146.623 36.3051 147.618 35.8502C147.695 35.3142 147.433 34.908 147.043 34.5437C146.595 34.119 146.11 34.2165 145.615 34.481C145.576 33.6294 146.077 33.1397 147.34 32.7684C147.3 31.4386 147.82 30.276 148.711 29.1481C148.386 29.2154 148.173 29.3129 147.973 29.2897C147.648 29.2549 147.335 29.1481 147.019 29.0623C146.836 29.0135 146.664 28.9323 146.483 28.8882C146.154 28.8093 146.003 28.8789 145.817 29.1667C145.727 29.3059 145.639 29.4475 145.537 29.6169C145.446 29.1597 145.581 28.6167 145.882 28.2222C146.226 27.7743 146.683 27.4842 147.247 27.3867C147.421 27.3566 147.625 27.3937 147.792 27.4494C148.15 27.5654 148.505 27.7024 148.846 27.8532C149.155 27.9878 149.452 27.9762 149.76 27.8671C150.078 27.7557 150.401 27.6583 150.76 27.6281C150.693 27.6908 150.63 27.7534 150.561 27.8114C149.459 28.7235 148.934 29.8908 148.939 31.2971C148.943 32.7289 148.902 34.1585 148.95 35.5857C148.994 36.7507 148.669 37.7996 148.15 38.8184C148.073 38.9623 148.001 39.1085 147.927 39.257C147.973 39.2686 147.994 39.2802 147.999 39.2756C148.786 38.4146 149.461 37.4794 149.517 36.2865C149.591 34.6899 149.595 33.091 149.637 31.492C149.646 31.1393 149.67 30.7842 149.716 30.4361C149.906 28.9602 151.102 27.7743 152.703 27.5097C152.61 27.6142 152.557 27.6954 152.482 27.7511C151.445 28.561 150.992 29.6216 151.039 30.9072C151.057 31.427 151.041 31.9469 151.041 32.5317C151.452 32.3112 151.64 31.9678 151.9 31.7032C152.162 31.441 152.394 31.1486 152.645 30.8724C152.9 30.587 153.16 30.3038 153.434 29.9998M151.055 36.3469C151.932 36.0336 152.731 36.1682 153.515 36.4142C153.643 35.8688 153.599 34.5135 153.441 34.1724C152.673 34.6017 151.881 34.5228 151.055 34.1794V36.3469ZM152.422 31.6359C151.963 32.1859 151.549 32.6663 151.157 33.1606C150.951 33.4205 151.02 33.7338 151.313 33.9102C151.942 34.2954 152.577 34.3024 153.223 33.9334C153.45 33.8034 153.538 33.641 153.434 33.4019C153.23 32.9215 153.028 32.4412 152.798 31.9747C152.74 31.854 152.582 31.7751 152.422 31.6359Z" fill="#2E358F"/>
<path fill-rule="evenodd" clip-rule="evenodd" d="M102.592 27.5119C102.358 27.7184 102.198 27.86 102.038 28.0039C101.263 28.7001 100.887 29.5634 100.887 30.5868C100.887 31.2111 100.887 31.8376 100.933 32.4874C101.258 32.2762 101.474 31.9862 101.72 31.7216C101.982 31.4362 102.237 31.1438 102.497 30.856C102.745 30.5798 102.994 30.306 103.265 30.0043C103.372 30.1064 103.467 30.183 103.544 30.2735C104.447 31.3224 104.915 32.5362 104.955 33.9077C104.973 34.5366 105.034 35.1678 105.01 35.7967C104.985 36.407 104.906 37.022 104.799 37.6254C104.681 38.3007 104.375 38.8971 103.892 39.4169C103.291 40.0644 102.718 40.7397 102.147 41.4104C102.049 41.5241 101.977 41.675 101.943 41.8188C101.875 42.0996 101.991 42.2482 102.279 42.3131C102.309 42.3201 102.342 42.3224 102.372 42.3271C102.75 42.4013 102.836 42.4826 102.792 42.7378C102.739 43.0326 102.388 43.3041 102.114 43.2577C101.84 43.2112 101.669 43.0442 101.567 42.7982C101.425 42.4408 101.418 42.0695 101.522 41.7121C101.629 41.3454 101.771 40.9834 101.94 40.6399C102.212 40.0853 102.518 39.5469 102.815 39.0062C103.145 38.4098 103.268 37.7669 103.305 37.1009C103.316 36.9037 103.254 36.783 103.077 36.6925C102.678 36.4836 102.256 36.3397 101.81 36.4767C101.409 36.602 101.007 36.7482 100.645 36.9524C100.007 37.3098 99.594 37.9015 99.0579 38.4585C99.2157 38.5026 99.3109 38.5421 99.413 38.5606C99.6752 38.6047 99.9444 38.6279 100.204 38.679C100.986 38.8252 101.71 38.7857 102.314 38.0199C102.328 38.2102 102.37 38.3169 102.337 38.3889C101.936 39.2058 101.525 40.0157 101.095 40.872C100.703 40.6956 100.33 40.5402 99.97 40.3661C99.2041 39.9971 98.4012 39.9577 97.5797 40.0876C97.2176 40.148 96.8904 40.3081 96.6305 40.561C96.3474 40.8326 96.1757 41.125 96.3126 41.5496C96.4008 41.8212 96.3868 42.1275 96.3868 42.4199C96.3868 42.6473 96.2035 42.8446 96.0271 42.8353C95.8276 42.8237 95.7138 42.6821 95.6906 42.5058C95.6651 42.2946 95.621 42.0648 95.679 41.8722C95.802 41.4475 95.9482 41.0182 96.1501 40.626C96.4425 40.0644 96.7953 39.5353 97.1155 38.9876C97.3406 38.6047 97.4613 38.1986 97.3778 37.7507C97.3422 37.5651 97.2068 37.4103 96.9716 37.2866C96.7721 37.5442 96.6027 37.8459 96.2592 37.9781C96.0155 37.087 96.4333 36.3444 97.4288 35.8501C97.5216 35.3001 97.2548 34.887 96.8579 34.5273C96.417 34.1281 95.9459 34.2094 95.4679 34.467C95.3402 33.7011 95.9668 33.0676 97.155 32.7821C97.1295 31.4617 97.6354 30.2944 98.4546 29.2431C98.3896 29.206 98.3571 29.1735 98.3408 29.1805C97.8349 29.4102 97.3592 29.257 96.8811 29.0784C96.721 29.018 96.5586 28.9554 96.3938 28.9113C95.9668 28.8022 95.8368 28.8579 95.6141 29.213C95.5328 29.3429 95.4447 29.4705 95.3611 29.5982C95.3588 29.6051 95.3333 29.5982 95.3147 29.5959C95.2335 28.4773 96.0434 27.5374 97.1643 27.3703C97.3105 27.3471 97.4752 27.3959 97.6191 27.4446C97.9742 27.5676 98.3292 27.6976 98.6727 27.8507C98.9837 27.9876 99.2761 27.976 99.587 27.867C99.905 27.7533 100.228 27.6535 100.59 27.6233C100.478 27.7231 100.364 27.8205 100.255 27.9203C99.355 28.7442 98.8073 29.7374 98.7887 30.9604C98.7679 32.499 98.7307 34.0353 98.7748 35.5716C98.8096 36.7343 98.5079 37.7902 97.9811 38.8043C97.9115 38.9389 97.8489 39.0735 97.8303 39.2545C97.8698 39.229 97.9231 39.2127 97.951 39.1756C98.4081 38.6233 98.8027 38.0361 99.0904 37.3794C99.3318 36.8294 99.3782 36.2469 99.3921 35.6644C99.4316 34.0817 99.4455 32.499 99.4919 30.9163C99.5499 28.8927 100.891 27.9319 102.349 27.5165C102.39 27.5049 102.437 27.5165 102.585 27.5165M103.367 36.4302V34.2163C102.92 34.3115 102.525 34.4577 102.131 34.46C101.724 34.46 101.314 34.3231 100.894 34.2465V36.3351C101.743 36.0497 102.544 36.1355 103.367 36.4302ZM102.244 31.645C101.789 32.1927 101.355 32.694 100.947 33.2138C100.782 33.4296 100.87 33.7406 101.121 33.8937C101.745 34.2767 102.379 34.3184 103.031 33.9448C103.254 33.8195 103.335 33.6663 103.279 33.418C103.152 32.8727 102.901 32.3784 102.597 31.9142C102.527 31.8121 102.39 31.7541 102.247 31.645" fill="#2E358F"/>
<path fill-rule="evenodd" clip-rule="evenodd" d="M118.839 39.1895C118.976 39.1175 119.071 39.0711 119.231 38.9876C119.231 39.1291 119.269 39.2452 119.225 39.3078C118.881 39.7836 118.524 40.25 118.171 40.7165C117.765 40.619 117.514 40.3916 117.431 40.0412C117.319 39.5654 117.201 39.0781 117.189 38.5931C117.159 37.0707 117.178 35.5483 117.18 34.026C117.18 33.5154 116.987 33.1116 116.533 32.7728C116.233 33.172 115.95 33.5363 115.69 33.9169C115.625 34.0074 115.623 34.1513 115.623 34.2697C115.618 35.6713 115.611 37.0707 115.627 38.4678C115.63 38.6534 115.718 38.8483 115.799 39.027C115.873 39.1941 115.992 39.3403 116.119 39.5399C115.744 39.9367 115.375 40.3266 114.973 40.7513C114.509 40.4009 114.244 39.9251 113.85 39.5445C114.228 39.164 114.307 38.73 114.305 38.2519C114.293 36.8967 114.316 35.5437 114.291 34.1931C114.281 33.8171 114.186 33.4319 114.056 33.0745C113.929 32.7171 113.734 32.7148 113.486 33.0095C113.476 33.0235 113.465 33.0327 113.458 33.0467C112.947 33.681 112.692 34.4027 112.692 35.2118C112.692 36.1656 112.708 37.1194 112.685 38.0709C112.676 38.5234 112.78 38.9203 113.042 39.2869C113.089 39.3473 113.119 39.4169 113.177 39.5213C112.813 39.9321 112.448 40.3429 112.049 40.7907C111.675 40.3313 111.337 39.9159 111.026 39.5376C111.026 39.4656 111.019 39.4424 111.028 39.4355C111.425 38.9945 111.415 38.4631 111.409 37.9201C111.388 36.458 111.388 34.996 111.388 33.5363C111.39 33.2462 111.334 32.991 111.091 32.7589C110.984 32.7983 110.861 32.8448 110.675 32.9167C110.682 32.7844 110.652 32.6707 110.698 32.6057C111.053 32.123 111.429 31.6496 111.831 31.1298C112.464 31.7355 112.608 32.499 112.778 33.36C113.439 32.6011 113.926 31.819 114.544 31.0927C115.24 31.6751 115.423 32.4711 115.672 33.3228C116.28 32.615 116.718 31.8538 117.31 31.1321C117.628 31.5939 117.925 32.0209 118.261 32.5083C118.477 32.2344 118.665 32 118.895 31.7076C118.944 31.8585 118.997 31.9536 118.992 32.0395C118.988 32.1254 118.923 32.2089 118.881 32.2901C118.593 32.8517 118.473 33.4365 118.482 34.0701C118.507 35.4091 118.489 36.7481 118.489 38.0848C118.489 38.4747 118.554 38.846 118.837 39.1918" fill="#2E358F"/>
<path fill-rule="evenodd" clip-rule="evenodd" d="M127.293 39.171C127.405 39.1223 127.511 39.0736 127.609 39.0318C127.755 39.1478 127.72 39.2569 127.637 39.366C127.303 39.8115 126.968 40.2571 126.63 40.7096C126.207 40.6307 125.959 40.3755 125.871 40.0181C125.759 39.5748 125.662 39.1153 125.655 38.6605C125.629 37.1381 125.646 35.6158 125.643 34.0934C125.643 33.5248 125.455 33.1559 124.966 32.7845C124.683 33.1651 124.392 33.5411 124.128 33.9356C124.058 34.04 124.068 34.2025 124.068 34.3371C124.063 35.69 124.075 37.043 124.058 38.3983C124.054 38.7185 124.202 38.9529 124.358 39.2012C124.569 39.5331 124.567 39.5516 124.295 39.8371C124.012 40.1388 123.717 40.4358 123.383 40.7816C123.005 40.3476 122.664 39.9554 122.311 39.5493C122.698 39.1362 122.745 38.6628 122.738 38.1569C122.719 36.8179 122.729 35.4812 122.736 34.1421C122.736 33.7662 122.677 33.4065 122.513 33.0677C122.343 32.7265 122.169 32.7126 121.93 33.0073C121.919 33.0189 121.909 33.0305 121.9 33.0445C121.388 33.6958 121.132 34.433 121.132 35.2561C121.132 36.1774 121.148 37.101 121.127 38.0246C121.116 38.4911 121.211 38.9065 121.489 39.2847C121.533 39.3451 121.557 39.4193 121.61 39.5307C121.26 39.9276 120.902 40.3314 120.498 40.7909C120.129 40.3383 119.784 39.916 119.41 39.4588C119.941 38.9877 119.874 38.3797 119.867 37.7786C119.849 36.3352 119.832 34.8894 119.825 33.4436C119.825 33.1814 119.756 32.9609 119.549 32.7521C119.436 32.7938 119.313 32.8379 119.15 32.8983C119.136 32.8054 119.08 32.6964 119.115 32.6523C119.491 32.144 119.881 31.6451 120.29 31.1206C120.909 31.7426 121.062 32.4945 121.211 33.2835C121.531 33.1257 121.645 32.8263 121.833 32.5989C122.03 32.3599 122.206 32.1046 122.392 31.8586C122.578 31.6126 122.763 31.3713 122.977 31.0905C123.696 31.666 123.87 32.4666 124.114 33.2905C124.488 32.9609 124.687 32.5618 124.952 32.216C125.209 31.8748 125.462 31.5221 125.752 31.1276C126.082 31.5987 126.379 32.0234 126.718 32.5107C126.931 32.2369 127.112 32.0025 127.289 31.7704C127.46 31.84 127.479 31.9491 127.426 32.0791C127.386 32.1788 127.335 32.274 127.289 32.3715C127.057 32.8658 126.929 33.374 126.938 33.9286C126.961 35.328 126.948 36.7274 126.948 38.1267C126.948 38.5004 127.006 38.8601 127.293 39.1687" fill="#2E358F"/>
<path fill-rule="evenodd" clip-rule="evenodd" d="M137.305 32.2206C137.476 32.0465 137.611 31.9096 137.794 31.7193C137.773 32.1278 137.743 32.4596 137.743 32.7892C137.739 34.7873 137.734 36.7854 137.748 38.7835C137.75 39.1153 137.641 39.2987 137.36 39.4866C136.789 39.8649 136.265 40.3081 135.685 40.7514C135.32 40.466 134.958 40.1225 134.543 39.8672C134.135 39.6189 133.67 39.4611 133.174 39.2383C133.619 38.6396 133.578 37.9759 133.575 37.3168C133.573 35.9174 133.585 34.5204 133.568 33.1233C133.564 32.824 133.645 32.636 133.928 32.5037C134.211 32.3761 134.471 32.1974 134.773 32.0233C134.689 31.9003 134.629 31.7959 134.555 31.7077C134.146 31.2436 133.733 30.7748 133.315 30.3176C133.169 30.1598 133.102 29.9951 133.111 29.7793C133.127 29.3267 133.114 28.8719 133.114 28.417C133.148 28.4031 133.178 28.3868 133.213 28.3752C134.571 29.6563 135.933 30.9349 137.305 32.2252M136.379 39.113C136.404 38.9668 136.423 38.9065 136.423 38.8484C136.425 37.2193 136.427 35.5902 136.423 33.9611C136.423 33.8567 136.411 33.729 136.351 33.6571C136.019 33.2556 135.673 32.8657 135.344 32.4875C134.938 32.6453 134.847 32.8936 134.852 33.2417C134.87 34.286 134.859 35.3303 134.859 36.3769V37.9434C134.859 38.0965 134.845 38.2544 135.012 38.3495C135.446 38.5908 135.877 38.8345 136.376 39.113" fill="#2E358F"/>
<path fill-rule="evenodd" clip-rule="evenodd" d="M169.2 43.2739C168.337 43.2924 168.181 42.5591 167.708 42.1646C167.423 42.4338 167.19 42.7958 166.724 42.8747C167.295 41.3082 167.39 40.6979 167.248 39.4401C167.007 39.3821 166.754 39.3218 166.471 39.2545C166.464 39.1036 166.455 38.9551 166.452 38.8715C166.694 38.6952 166.907 38.5745 167.074 38.4074C167.267 38.2078 167.272 37.9363 167.272 37.6694C167.267 36.4256 167.272 35.1793 167.267 33.9355C167.267 33.4899 167.214 33.049 166.896 32.6521C166.756 32.7287 166.631 32.7983 166.513 32.8633C166.339 32.7426 166.411 32.6382 166.487 32.5338C166.824 32.0696 167.16 31.6078 167.529 31.1019C168.29 31.5684 168.353 32.3597 168.587 33.1673C169.1 32.4572 169.567 31.8144 170.068 31.1205C170.193 31.2458 170.312 31.341 170.4 31.4547C171.033 32.2599 171.384 33.165 171.386 34.1861C171.391 35.6156 171.391 37.0452 171.384 38.4747C171.382 38.6163 171.347 38.795 171.256 38.8948C170.727 39.4772 170.177 40.0435 169.609 40.6376C169.302 40.445 168.977 40.2384 168.599 39.9971C168.353 41.1899 168.506 42.2481 169.198 43.2739M169.4 32.803C169.008 33.1743 168.771 33.5688 168.562 33.9842C168.525 34.0608 168.513 34.1629 168.513 34.2511C168.509 35.5112 168.506 36.7713 168.518 38.0315C168.518 38.1359 168.578 38.296 168.659 38.3378C169.103 38.5559 169.56 38.7462 170.075 38.976C170.087 38.7462 170.108 38.5977 170.108 38.4492C170.108 37.0661 170.101 35.6829 170.11 34.2998C170.117 33.6988 169.815 33.2578 169.4 32.803Z" fill="#2E358F"/>
<path fill-rule="evenodd" clip-rule="evenodd" d="M158.277 40.7096C157.427 40.2223 156.771 39.4959 155.814 39.2058C155.831 39.1316 155.831 39.0689 155.861 39.0202C156.105 38.5885 156.149 38.1197 156.149 37.6394C156.149 36.1657 156.149 34.6921 156.149 33.2162V32.7056C156.984 32.4039 157.557 31.8168 158.112 31.1438C158.752 31.7959 159.483 32.2832 160.358 32.5803V33.0119C160.358 34.9311 160.351 36.8503 160.368 38.7695C160.368 39.0805 160.275 39.2778 160.013 39.4541C159.421 39.8556 158.852 40.2896 158.279 40.7073M158.959 39.2244C159.001 39.1246 159.036 39.0851 159.036 39.0457C159.04 37.34 159.04 35.6366 159.047 33.9332C159.047 33.736 158.945 33.6269 158.785 33.5341C158.432 33.3345 158.086 33.121 157.736 32.9191C157.664 32.8797 157.574 32.8727 157.453 32.8425C157.453 34.6178 157.453 36.3514 157.457 38.0849C157.457 38.1824 157.495 38.3216 157.567 38.3681C158.017 38.6605 158.481 38.9343 158.961 39.2244" fill="#2E358F"/>
<path fill-rule="evenodd" clip-rule="evenodd" d="M161.266 40.64C161.055 40.3917 161.212 40.2501 161.28 40.1132C161.684 39.2801 162.101 38.4539 162.514 37.6231C162.586 37.4723 162.658 37.3191 162.751 37.1219C162.433 36.848 162.127 36.5649 161.8 36.3119C161.568 36.1332 161.472 35.9313 161.477 35.6436C161.493 34.8128 161.491 33.982 161.477 33.1535C161.475 32.8982 161.574 32.7474 161.769 32.5757C162.247 32.1579 162.679 31.6915 163.19 31.1809C163.586 31.3805 164.058 31.6056 164.519 31.8586C164.805 32.014 165.067 32.0605 165.357 31.8794C165.745 31.6358 165.861 31.2018 165.631 30.8027C165.578 30.7098 165.489 30.6263 165.464 30.5288C165.427 30.3849 165.39 30.2248 165.429 30.0902C165.496 29.8419 165.733 29.8094 165.889 30.0136C165.951 30.0949 165.995 30.2016 166.028 30.3014C166.174 30.7795 166.128 31.2459 165.909 31.6915C165.689 32.1486 165.45 32.6012 165.223 33.056C164.993 33.5109 164.768 33.9657 164.517 34.4716C164.854 34.7617 165.183 35.0657 165.536 35.3442C165.752 35.5159 165.831 35.7086 165.826 35.9801C165.814 36.9478 165.814 37.9178 165.826 38.8856C165.831 39.164 165.731 39.3195 165.494 39.4797C165.095 39.7465 164.735 40.0761 164.364 40.3824C164.243 40.4822 164.136 40.5889 163.995 40.7189C163.108 40.0853 162.201 39.8533 161.268 40.6423M164.587 39.2267C164.608 39.1942 164.638 39.1733 164.638 39.1501C164.642 38.4284 164.649 37.709 164.645 36.9896C164.645 36.906 164.61 36.7993 164.55 36.7413C164.299 36.4953 164.037 36.2609 163.772 36.0195C163.405 36.5115 162.491 38.4214 162.461 38.7162C162.832 38.737 163.22 38.7069 163.575 38.7904C163.928 38.8763 164.25 39.0759 164.587 39.2267ZM164.696 33.3531C164.301 33.3067 163.974 33.2951 163.661 33.2254C163.352 33.1558 163.06 33.0305 162.705 32.9075C162.705 33.6107 162.7 34.2535 162.707 34.894C162.707 34.9775 162.744 35.0866 162.804 35.14C163.016 35.3303 163.248 35.502 163.508 35.7132C163.93 34.894 164.322 34.1398 164.696 33.3531Z" fill="#2E358F"/>
<path fill-rule="evenodd" clip-rule="evenodd" d="M106.185 40.7212C105.319 39.902 104.994 38.9482 105.122 37.8714C105.25 36.7784 105.549 35.7248 106.278 34.8429C106.417 34.6759 106.391 34.5134 106.343 34.3254C106.15 33.5967 105.971 32.8634 105.774 32.0883C106.487 32.0396 107.037 31.7193 107.482 31.1577C108.095 31.4803 108.698 31.7959 109.297 32.1092C109.452 31.9839 109.58 31.8748 109.717 31.7727C109.733 31.7588 109.773 31.7727 109.833 31.7797C109.717 32.1301 109.594 32.4712 109.492 32.8216C109.436 33.0119 109.392 33.2115 109.39 33.4064C109.373 35.0518 109.371 36.6972 109.366 38.3425C109.364 38.6697 109.387 38.99 109.684 39.236C109.717 39.2313 109.766 39.236 109.803 39.2151C109.896 39.1733 109.993 39.0503 110.074 39.2012C110.104 39.2569 110.077 39.3799 110.033 39.4379C109.724 39.8254 109.408 40.2107 109.083 40.5843C108.919 40.7769 108.768 40.7885 108.617 40.5889C108.473 40.3963 108.35 40.1689 108.287 39.9368C108.178 39.5261 108.12 39.0991 108.027 38.6001C107.361 39.2801 106.839 40.018 106.183 40.7212M106.737 35.0402C105.953 35.8756 106.176 38.2729 107.006 39.3149C107.392 38.9064 107.742 38.4818 108.065 38.0385C108.113 37.9735 108.099 37.8598 108.102 37.7693C108.104 37.3098 108.113 36.848 108.097 36.3908C108.092 36.2655 108.053 36.1007 107.967 36.0242C107.57 35.6807 107.15 35.3628 106.739 35.0402M107.962 35.5252C108.004 35.509 108.044 35.4904 108.083 35.4742C108.083 34.8221 108.095 34.1699 108.074 33.5178C108.069 33.4134 107.944 33.2765 107.839 33.2138C107.385 32.9446 106.918 32.6963 106.452 32.4434C106.382 32.4062 106.292 32.4062 106.199 32.3854C106.189 32.4689 106.171 32.5176 106.18 32.5571C106.326 33.1349 106.47 33.7151 106.626 34.2929C106.654 34.3927 106.695 34.5088 106.77 34.5714C107.162 34.8963 107.566 35.2096 107.962 35.5252Z" fill="#2E358F"/>
<path fill-rule="evenodd" clip-rule="evenodd" d="M184.171 39.2545C184.282 39.2012 184.377 39.1594 184.542 39.0805C184.542 39.2174 184.579 39.3358 184.538 39.3938C184.21 39.8069 183.867 40.206 183.533 40.6121C183.4 40.7699 183.252 40.7491 183.127 40.6284C183.029 40.5356 182.927 40.4149 182.892 40.2896C182.776 39.8927 182.681 39.4913 182.588 39.0875C182.556 38.9575 182.551 38.8229 182.528 38.6117C182.219 38.8229 182.064 39.0851 181.866 39.3033C181.669 39.5237 181.488 39.7558 181.298 39.9809C181.098 40.213 180.896 40.4474 180.657 40.7282C180.462 40.5077 180.281 40.3406 180.147 40.1434C179.643 39.3915 179.478 38.5653 179.618 37.6788C179.78 36.6484 180.073 35.6691 180.748 34.836C180.873 34.6828 180.866 34.5413 180.822 34.3649C180.625 33.6223 180.444 32.875 180.249 32.0906C180.961 32.0303 181.528 31.7147 181.952 31.1484C182.579 31.4826 183.171 31.7959 183.755 32.1046C183.932 31.9676 184.08 31.8516 184.231 31.7332C184.254 31.7495 184.273 31.7657 184.296 31.782C184.185 32.1278 184.064 32.4712 183.962 32.8216C183.913 32.9957 183.872 33.1813 183.867 33.3624C183.851 34.9915 183.837 36.6183 183.83 38.2474C183.827 38.6001 183.83 38.9598 184.176 39.2545M181.421 39.3729C181.862 38.9111 182.189 38.4864 182.516 38.0687C182.56 38.013 182.574 37.9248 182.574 37.8505C182.579 37.3446 182.584 36.841 182.574 36.3351C182.572 36.2377 182.535 36.1077 182.465 36.0497C182.057 35.7016 181.63 35.3721 181.163 34.9984C180.395 36.5185 180.72 37.897 181.421 39.3729ZM182.437 35.5299C182.495 35.4463 182.528 35.4231 182.528 35.3976C182.535 34.7849 182.537 34.1723 182.546 33.5596C182.549 33.3809 182.456 33.2811 182.305 33.1976C181.853 32.9516 181.407 32.6963 180.957 32.4503C180.878 32.4086 180.787 32.3946 180.676 32.3575C180.667 32.448 180.643 32.5107 180.66 32.564C180.808 33.1581 180.957 33.7546 181.119 34.3463C181.145 34.4438 181.214 34.5436 181.291 34.6086C181.66 34.9172 182.041 35.2096 182.437 35.5275" fill="#2E358F"/>
<path fill-rule="evenodd" clip-rule="evenodd" d="M132.585 31.8099C132.095 32.657 132.097 33.5783 132.095 34.5019C132.095 35.7922 132.074 37.0848 132.076 38.3751C132.076 38.6977 132.111 39.0226 132.434 39.2523C132.527 39.2082 132.619 39.1642 132.775 39.0899C132.786 39.2129 132.838 39.3336 132.796 39.3846C132.459 39.8093 132.109 40.2247 131.758 40.6378C131.642 40.7747 131.494 40.7469 131.387 40.6378C131.28 40.5287 131.171 40.3988 131.132 40.2618C131.016 39.8812 130.93 39.4914 130.844 39.1015C130.809 38.9576 130.798 38.8114 130.761 38.5538C130.113 39.315 129.535 39.9926 128.918 40.7144C128.76 40.5542 128.605 40.4312 128.491 40.2781C127.906 39.4914 127.714 38.6072 127.869 37.6557C128.036 36.6277 128.331 35.6437 129.013 34.8129C129.127 34.6737 129.111 34.5391 129.071 34.3836C128.892 33.699 128.725 33.012 128.551 32.3251C128.533 32.2555 128.521 32.1812 128.5 32.0791C129.229 32.0443 129.758 31.6823 130.218 31.1602C130.823 31.4804 131.413 31.7937 132.004 32.1093C132.172 31.9747 132.325 31.854 132.476 31.7334C132.51 31.7589 132.547 31.7867 132.585 31.8099ZM129.456 35.0426C128.595 36.0127 128.976 38.4169 129.695 39.2779C129.732 39.2593 129.786 39.25 129.811 39.2198C130.122 38.8532 130.436 38.4912 130.728 38.1129C130.798 38.027 130.819 37.8855 130.821 37.7671C130.832 37.3076 130.832 36.8481 130.821 36.3909C130.816 36.2749 130.788 36.1218 130.712 36.0568C130.303 35.7063 129.876 35.3768 129.456 35.045M128.95 32.3298C128.911 32.4504 128.888 32.4806 128.895 32.5085C128.955 32.7777 129.015 33.0492 129.085 33.3161C129.302 34.1592 129.763 34.8431 130.468 35.3675C130.545 35.4255 130.64 35.4604 130.786 35.5346C130.786 34.8245 130.791 34.1817 130.781 33.5412C130.779 33.4483 130.719 33.3207 130.642 33.2766C130.095 32.9564 129.533 32.6547 128.948 32.3321" fill="#2E358F"/>
<path fill-rule="evenodd" clip-rule="evenodd" d="M185.025 28.1268C185.522 28.2799 185.795 28.5491 186.039 28.9042C186.48 28.4865 186.714 27.8506 187.424 27.8204C187.267 28.2892 187.093 28.7116 186.984 29.1479C186.907 29.4588 186.884 29.786 186.881 30.1063C186.874 32.6567 186.891 35.2095 186.868 37.7622C186.863 38.217 186.979 38.5628 187.327 38.8529C187.422 38.9295 187.487 39.0432 187.561 39.136C187.71 39.0687 187.803 39.0246 187.968 38.9504C187.972 39.0966 188.03 39.2521 187.974 39.324C187.608 39.7997 187.216 40.2616 186.83 40.728C186.266 40.1989 185.721 39.6837 185.143 39.1384C185.157 39.1128 185.197 39.0316 185.245 38.962C185.508 38.6092 185.587 38.2078 185.587 37.7854C185.591 35.0795 185.587 32.3736 185.591 29.67C185.591 29.127 185.359 28.6652 185.027 28.1291" fill="#2E358F"/>
<path fill-rule="evenodd" clip-rule="evenodd" d="M88.5938 28.1409C89.0347 28.2779 89.3155 28.5424 89.5522 28.9137C89.9954 28.4589 90.2484 27.8416 91.0212 27.8021C90.9632 27.9182 90.9353 27.9924 90.8889 28.062C90.5361 28.6144 90.4016 29.2317 90.3969 29.8652C90.383 32.599 90.3923 35.3327 90.3876 38.0665C90.3876 38.28 90.441 38.4517 90.6035 38.6002C90.7752 38.7557 90.926 38.9321 91.107 39.1177C91.2068 39.069 91.2997 39.0249 91.4041 38.9762C91.4319 39.0017 91.4923 39.0272 91.4946 39.0597C91.5016 39.1572 91.5224 39.2825 91.4691 39.3475C91.0978 39.8209 90.7079 40.2804 90.3412 40.7236C89.768 40.1829 89.218 39.6654 88.6448 39.127C89.0765 38.6466 89.1066 38.0293 89.1043 37.3911C89.095 34.9173 89.0927 32.4458 89.1066 29.972C89.1113 29.3686 88.9929 28.8163 88.6471 28.3127C88.6239 28.2802 88.6239 28.2338 88.5961 28.1433" fill="#2E358F"/>
<path fill-rule="evenodd" clip-rule="evenodd" d="M178.511 39.2406C178.694 39.0758 178.84 38.9459 178.991 38.8136C179.142 38.9064 179.209 39.0109 179.095 39.1547C178.65 39.6885 178.202 40.2199 177.759 40.7467C177.234 40.2315 176.738 39.7442 176.206 39.222C176.225 39.1663 176.276 39.0573 176.299 38.9412C176.387 38.491 176.526 38.0385 176.538 37.5883C176.566 36.0682 176.547 34.5459 176.547 33.0235V32.5408C176.389 32.4851 176.248 32.4341 176.058 32.3668C176.102 32.2275 176.123 32.079 176.19 31.9467C176.696 30.9581 177.209 29.9718 177.719 28.9855C177.733 28.96 177.761 28.9415 177.838 28.8602V31.4756C178.346 31.4942 178.805 31.5128 179.288 31.5313V32.3877H177.9C177.875 32.5339 177.84 32.6336 177.84 32.7334C177.835 34.5482 177.84 36.3606 177.833 38.1754C177.833 38.3889 177.886 38.563 178.039 38.7161C178.202 38.8763 178.346 39.0549 178.511 39.2406Z" fill="#2E358F"/>
<path fill-rule="evenodd" clip-rule="evenodd" d="M172.542 32.4039C172.899 31.9954 173.213 31.6334 173.565 31.225C173.907 31.6497 174.224 32.0442 174.522 32.4108C174.517 32.4851 174.526 32.5222 174.512 32.5431C174.185 32.9956 174.15 33.4992 174.155 34.0353C174.176 35.5414 174.162 37.0499 174.164 38.556C174.164 38.8623 174.159 39.1733 174.482 39.3891C174.591 39.2963 174.696 39.2081 174.793 39.1245C174.972 39.222 175.004 39.3288 174.884 39.468C174.549 39.8556 174.218 40.2454 173.886 40.6353C173.739 40.8047 173.556 40.7885 173.433 40.6492C173.257 40.4427 173.08 40.2129 172.988 39.9623C172.897 39.7094 172.881 39.4193 172.878 39.1454C172.869 37.5001 172.872 35.8547 172.874 34.2094C172.878 33.5944 172.93 32.9771 172.542 32.4062" fill="#2E358F"/>
<path fill-rule="evenodd" clip-rule="evenodd" d="M141.053 39.3869C141.164 39.2987 141.269 39.2152 141.378 39.1293C141.533 39.2152 141.589 39.3103 141.461 39.4565C141.127 39.8464 140.798 40.234 140.466 40.6261C140.32 40.8002 140.139 40.7863 140.02 40.6447C139.837 40.4242 139.656 40.1806 139.556 39.9183C139.466 39.6816 139.463 39.4055 139.461 39.1456C139.454 37.47 139.452 35.7945 139.461 34.1213C139.466 33.5342 139.477 32.954 139.122 32.397C139.454 32.0188 139.779 31.6451 140.148 31.2228C140.487 31.6451 140.805 32.0373 141.099 32.404C141.097 32.4736 141.109 32.5131 141.092 32.534C140.742 33.012 140.723 33.5527 140.728 34.1143C140.749 35.5764 140.733 37.0361 140.737 38.4958C140.737 38.816 140.728 39.1456 141.051 39.3869" fill="#2E358F"/>
<path fill-rule="evenodd" clip-rule="evenodd" d="M155.608 9.93505C155.615 9.29454 156.121 8.80952 156.768 8.82113C157.383 8.83273 157.871 9.32471 157.875 9.94201C157.882 10.5663 157.355 11.0931 156.734 11.0884C156.102 11.0838 155.599 10.5686 155.608 9.93273" fill="#2E358F"/>
<path fill-rule="evenodd" clip-rule="evenodd" d="M86.1783 28.7512C86.6448 28.1432 87.0578 27.5514 87.8329 27.3217C87.8028 27.4052 87.7888 27.4887 87.7471 27.5537C87.5962 27.8067 87.4268 28.048 87.2829 28.3033C87.03 28.7535 86.8908 29.2316 86.8931 29.7537C86.8977 32.4434 86.8977 35.1354 86.8931 37.825C86.8931 38.2822 86.9905 38.6999 87.3201 39.0875C87.4732 38.9505 87.6055 38.8299 87.7401 38.7092C88.0256 38.9575 88.0372 38.9645 87.8399 39.2035C87.4268 39.7094 87.0068 40.206 86.5798 40.7003C86.4104 40.8953 86.2943 40.9046 86.1087 40.7282C85.9903 40.6145 85.8789 40.4706 85.814 40.3197C85.6097 39.8254 85.4287 39.3172 85.2292 38.7858C84.9298 38.8949 84.7627 39.2012 84.5213 39.424C84.2823 39.6468 84.0688 39.8904 83.8368 40.1202C83.5954 40.3615 83.3471 40.5936 83.0732 40.8605C82.8737 40.7143 82.6741 40.5681 82.4792 40.4219C81.9524 40.0297 81.4279 39.6398 80.9034 39.2453C80.734 39.1153 80.5739 39.0295 80.3465 39.1292C80.1144 39.2313 80.0773 39.4309 80.0773 39.6259C80.0773 39.8533 80.1306 40.083 80.1631 40.3105C80.2049 40.6191 80.1306 40.8094 79.9473 40.8535C79.75 40.8976 79.5597 40.7119 79.5087 40.4079C79.4948 40.3197 79.4994 40.22 79.5249 40.1387C79.7199 39.5725 79.8916 38.9946 80.1306 38.447C80.423 37.767 80.7735 37.1126 81.096 36.4442C81.1564 36.3212 81.2121 36.1959 81.277 36.052C80.7874 35.4951 80.4114 34.8754 80.1422 34.2001C79.5296 32.6754 79.5783 31.1531 80.2304 29.6679C80.9568 28.0155 82.63 27.2381 84.4169 27.6744C84.6119 27.7208 84.7975 27.8183 84.9669 27.925C85.3568 28.1757 85.7374 28.4518 86.1783 28.7535M84.5097 29.763C83.846 29.1457 82.7971 28.967 82.0452 29.3383C81.2492 29.7305 80.6922 30.3478 80.4138 31.167C79.9055 32.6569 80.1585 34.0423 81.1239 35.3001C81.2144 35.4185 81.3327 35.5136 81.4952 35.6761C82.1635 34.3417 82.7994 33.0676 83.4446 31.789C83.2078 31.5592 82.9503 31.4571 82.6602 31.4571C82.1914 31.4571 81.9408 31.8098 81.6553 32.1626C81.5648 31.5731 81.7551 31.1415 82.1264 30.7679C82.7019 30.19 83.3819 30.132 84.1384 30.4267C84.28 30.1738 84.396 29.9626 84.5097 29.7607M85.2616 36.7088C85.1619 36.667 85.1201 36.6322 85.0806 36.6322C83.9667 36.6252 82.8528 36.6183 81.7365 36.6229C81.646 36.6229 81.5138 36.6949 81.4743 36.7691C81.3281 37.0337 81.2144 37.3168 81.0821 37.6092C82.0289 38.2219 82.9317 38.8043 83.8298 39.3915C84.0108 39.5098 84.1408 39.4843 84.2777 39.3265C84.5562 38.997 84.8486 38.6744 85.1247 38.3425C85.1897 38.2636 85.2547 38.1546 85.2593 38.0594C85.2709 37.6022 85.264 37.1474 85.264 36.7065M84.96 30.1552C84.9112 30.1459 84.8578 30.139 84.8091 30.132C83.9876 31.7495 83.1707 33.3693 82.3654 35.017C83.0036 35.1214 84.8973 35.0936 85.2315 34.9845C85.2361 34.9288 85.2477 34.8708 85.2454 34.8105C85.2175 33.5248 85.1943 32.2368 85.1456 30.9512C85.1363 30.6843 85.0272 30.4221 84.9623 30.1575" fill="#2E358F"/>
<path fill-rule="evenodd" clip-rule="evenodd" d="M163.737 9.93505C163.744 9.29454 164.25 8.80952 164.898 8.82113C165.51 8.83273 166 9.32471 166.005 9.94201C166.012 10.5663 165.485 11.0931 164.863 11.0884C164.232 11.0838 163.728 10.5686 163.737 9.93273" fill="#2E358F"/>
<path fill-rule="evenodd" clip-rule="evenodd" d="M162.261 12.3928C162.268 11.7523 162.774 11.2673 163.422 11.2789C164.037 11.2905 164.524 11.7825 164.529 12.3998C164.533 13.0217 164.009 13.5508 163.384 13.5462C162.753 13.5415 162.25 13.0264 162.259 12.3905" fill="#2E358F"/>
<path fill-rule="evenodd" clip-rule="evenodd" d="M165.253 12.3928C165.26 11.7523 165.765 11.2673 166.413 11.2789C167.026 11.2905 167.515 11.7825 167.52 12.3998C167.527 13.0217 167 13.5508 166.378 13.5462C165.749 13.5415 165.243 13.0264 165.253 12.3905" fill="#2E358F"/>
<path fill-rule="evenodd" clip-rule="evenodd" d="M169.514 9.93505C169.521 9.29454 170.027 8.80952 170.674 8.82113C171.289 8.83273 171.776 9.32471 171.781 9.94201C171.788 10.5663 171.261 11.0931 170.639 11.0884C170.008 11.0838 169.507 10.5686 169.514 9.93273" fill="#2E358F"/>
<path fill-rule="evenodd" clip-rule="evenodd" d="M169.514 12.3928C169.521 11.7523 170.027 11.2673 170.674 11.2789C171.289 11.2905 171.776 11.7825 171.781 12.3998C171.788 13.0217 171.261 13.5508 170.639 13.5462C170.008 13.5415 169.507 13.0264 169.514 12.3905" fill="#2E358F"/>
<path fill-rule="evenodd" clip-rule="evenodd" d="M172.368 29.1781C172.375 28.5376 172.881 28.0526 173.528 28.0642C174.143 28.0758 174.63 28.5678 174.635 29.1851C174.642 29.8093 174.115 30.3361 173.493 30.3315C172.862 30.3268 172.359 29.8116 172.368 29.1758" fill="#2E358F"/>
<path fill-rule="evenodd" clip-rule="evenodd" d="M138.992 29.1781C138.999 28.5376 139.505 28.0526 140.152 28.0642C140.767 28.0758 141.254 28.5678 141.259 29.1851C141.266 29.8093 140.739 30.3361 140.117 30.3315C139.486 30.3268 138.983 29.8116 138.992 29.1758" fill="#2E358F"/>
<path fill-rule="evenodd" clip-rule="evenodd" d="M85.4307 23.5969C85.4376 22.9564 85.9435 22.4714 86.591 22.4853C87.206 22.4969 87.6933 22.9889 87.698 23.6062C87.7049 24.2304 87.1781 24.7572 86.5539 24.7526C85.925 24.7479 85.4191 24.2327 85.4283 23.5969" fill="#2E358F"/>
<path fill-rule="evenodd" clip-rule="evenodd" d="M83.0079 23.5969C83.0149 22.9564 83.5208 22.4714 84.1683 22.4853C84.7833 22.4969 85.2706 22.9889 85.2752 23.6062C85.2822 24.2304 84.7554 24.7572 84.1335 24.7526C83.5022 24.7479 82.9987 24.2327 83.0079 23.5969Z" fill="#2E358F"/>
<path fill-rule="evenodd" clip-rule="evenodd" d="M79.5618 21.3876C79.6198 21.3482 79.7033 21.2855 79.7033 21.2855C79.7938 21.2205 80.4227 21.065 80.8405 20.3642C81.2582 19.6633 82.3025 17.9182 82.3025 17.9182C83.3398 19.1621 85.3959 19.4127 85.0246 17.96C84.6324 16.2496 84.4561 15.4676 84.4561 15.4676C82.8107 9.83762 87.6934 11.0003 88.7888 8.40112C90.1301 13.2676 91.2928 17.5863 91.2928 17.5863C91.7499 19.2433 92.3139 19.1737 93.6923 18.4914V21.3899H89.8284L87.6748 13.6714C87.2571 12.142 86.5238 13.2606 86.7257 14.1517C86.9299 15.0406 88.4267 21.3899 88.4267 21.3899H79.5571L79.5618 21.3876Z" fill="#2E358F"/>
<path d="M103.142 18.3893C103.142 17.7209 102.871 17.2637 102.332 17.2637H95.166C95.166 17.2637 95.2356 17.0038 95.3981 16.8576C96.3867 15.941 96.9761 14.6367 96.9761 14.6367L97.2546 14.5927C97.5749 14.5927 97.3915 14.8735 97.8487 14.8735H103.404C104.43 14.8735 105.89 15.2285 105.89 17.0386V21.4108L95.166 21.3899V18.3893H103.14H103.142Z" fill="#2E358F"/>
<path d="M32.3827 45.8638C21.4128 45.8638 12.5177 36.9709 12.5177 25.9988C12.5177 15.0267 21.4128 6.13616 32.3827 6.13616C36.9567 6.13616 41.1687 7.68637 44.5267 10.2855C39.9364 4.59987 32.9141 0.96106 25.0377 0.96106C11.2112 0.96106 0 12.1722 0 26.0011C0 39.83 11.2112 51.0388 25.0377 51.0388C32.9141 51.0388 39.9364 47.4 44.5267 41.7144C41.1687 44.3135 36.959 45.8638 32.3827 45.8638Z" fill="#EC2027"/>
<path fill-rule="evenodd" clip-rule="evenodd" d="M54.768 19.7399V24.7479H52.264V13.4811H47.256V24.7479H44.752V19.7399H39.7439V24.7479H37.2399V13.4811H32.2319V38.5188H37.2399V27.252H39.7439V32.26H44.752V27.252H47.256V38.5188H52.264V27.252H54.768V32.26H59.776V19.7399H54.768Z" fill="#2E358F"/>
<path fill-rule="evenodd" clip-rule="evenodd" d="M134.488 9.89091C133.759 9.60315 132.921 9.23648 132.587 8.93015C132.178 8.58901 132.401 8.45673 131.946 8.3407L131.939 8.33606H131.935V18.3869H129.389V18.0504C129.34 16.9179 128.308 14.8711 126.012 14.8711H117.816C117.92 15.2911 118.036 15.0846 118.34 15.4489C118.61 15.7436 118.934 16.4839 119.187 17.1291C119.357 17.5259 119.461 17.4795 119.814 17.3124C119.953 17.2683 120.041 17.2683 120.204 17.2683C120.366 17.2683 123.815 17.2614 125.151 17.2614C126.488 17.2614 126.488 17.8833 126.488 18.3869H118.027C118.027 18.3869 117.707 18.3892 117.568 18.1734V18.1873C117.062 16.9342 115.834 16.2635 114.4 16.2635C112.966 16.2635 111.747 16.9272 111.239 18.1734C111.1 18.3892 110.777 18.3892 110.777 18.3892H110.48H110.067V11.0466C110.067 10.861 110.067 10.7612 110.118 10.6034C110.306 10.2065 110.36 10.0882 109.912 9.89555C109.183 9.60779 108.345 9.24112 108.011 8.93479C107.6 8.58901 107.835 8.45905 107.359 8.34302V21.413L107.366 21.3922H111.121C111.121 21.3922 111.441 21.3922 111.583 21.608H111.585C112.2 22.5038 113.23 23.0932 114.4 23.0932C115.569 23.0932 116.607 22.5014 117.222 21.601V21.6103C117.361 21.3922 117.684 21.3945 117.684 21.3945C117.684 21.3945 126.602 21.3875 126.978 21.3875C127.354 21.3875 127.461 21.4525 127.565 21.5964C128.066 22.2438 129.484 22.5687 130.032 22.3065L129.593 21.3945H132.522H134.636V11.0396C134.636 10.8563 134.636 10.7542 134.687 10.5987C134.875 10.2019 134.928 10.0812 134.481 9.89091M114.391 20.812C113.759 20.8074 113.258 20.2898 113.265 19.6563C113.272 19.0158 113.78 18.5308 114.428 18.5424C115.043 18.554 115.53 19.046 115.535 19.6633C115.539 20.2875 115.015 20.8143 114.391 20.8097" fill="#2E358F"/>
<path fill-rule="evenodd" clip-rule="evenodd" d="M135.527 21.4085H138.236V18.083V11.0583C138.236 10.875 138.236 10.7729 138.284 10.6174C138.472 10.2206 138.526 10.1022 138.078 9.90959C137.349 9.62182 136.511 9.25516 136.179 8.94883C135.771 8.60769 135.994 8.47541 135.539 8.35938L135.534 8.35474C135.534 8.35474 135.53 8.35474 135.527 8.35474V21.4085Z" fill="#2E358F"/>
<path d="M187.991 13.9893H187.986C187.728 14.0543 187.592 14.284 187.58 14.3118C187.369 14.6135 186.385 14.8502 185.422 14.9315C184.449 15.015 183.092 16.1382 182.693 16.9249C182.437 17.4262 182.28 17.8602 182.194 18.3846H181.655V13.5437L181.648 13.546L181.641 13.5483C181.186 13.6644 181.409 13.7967 181.003 14.1378C180.671 14.4418 179.834 14.8108 179.103 15.0986C178.655 15.2889 178.708 15.4095 178.894 15.8064C178.945 15.9642 178.945 16.064 178.945 16.2473V18.3846H178.432V14.8618L178.423 14.8642H178.418C177.963 14.9802 178.186 15.1125 177.777 15.4536C177.446 15.7576 176.608 16.1266 175.879 16.4121C175.431 16.6024 175.482 16.723 175.673 17.1199C175.721 17.2777 175.724 17.3775 175.724 17.5631V18.3846H175.225V14.8618L175.218 14.8642H175.213C174.758 14.9802 174.981 15.1125 174.573 15.4536C174.241 15.7576 173.403 16.1266 172.672 16.4121C172.224 16.6024 172.275 16.723 172.465 17.1199C172.514 17.2777 172.516 17.3775 172.516 17.5631V18.3846H172.001V13.5437L171.994 13.546L171.99 13.5483C171.535 13.6644 171.758 13.7967 171.349 14.1378C171.017 14.4418 170.177 14.8108 169.449 15.0986C169.001 15.2889 169.054 15.4095 169.24 15.8064C169.291 15.9642 169.291 16.064 169.291 16.2473V18.3846H168.792V14.8618L168.785 14.8642H168.78C168.325 14.9802 168.548 15.1125 168.14 15.4536C167.808 15.7576 166.97 16.1266 166.241 16.4121C165.793 16.6024 165.847 16.723 166.035 17.1199C166.084 17.2777 166.084 17.3775 166.084 17.5631V18.3846H165.596V14.8618L165.589 14.8642H165.585C165.13 14.9802 165.353 15.1125 164.944 15.4536C164.612 15.7576 163.772 16.1266 163.043 16.4121C162.596 16.6024 162.649 16.723 162.837 17.1199C162.886 17.2777 162.888 17.3775 162.888 17.5631V18.3846H162.396V14.8618L162.389 14.8642H162.382C161.927 14.9802 162.15 15.1125 161.744 15.4536C161.412 15.7576 160.572 16.1266 159.843 16.4121C159.395 16.6024 159.449 16.723 159.637 17.1199C159.685 17.2777 159.688 17.3775 159.688 17.5631V18.3846H158.049V11.5386L158.042 11.541H158.038C157.78 11.6083 157.643 11.8357 157.632 11.8659C157.42 12.1675 156.439 12.4043 155.473 12.4855C154.501 12.569 153.143 13.6922 152.744 14.4789C152.347 15.2656 152.178 15.876 152.169 16.9528L152.266 17.2057H155.464V18.3846L151.832 18.4055L148.89 8.5705C148.732 8.06692 148.574 8.50088 148.574 8.67957C148.574 8.85827 148.328 9.11354 147.971 9.38042C147.616 9.64729 145.453 11.295 145.453 11.295C144.297 12.1142 144.153 13.4462 144.724 15.1264C145.232 16.6232 145.627 17.6722 145.627 17.6722C145.982 18.5796 145.448 18.3823 145.035 18.3823H142.053C142.053 18.3823 141.211 20.2412 140.556 20.9513V21.4061H148.456C149.029 21.4061 148.871 21.0511 148.732 20.6937C148.521 20.1483 148.537 20.1414 147.093 15.1241L146.817 13.9591C146.639 13.2675 147.154 13.0703 147.409 13.0703C147.664 13.0703 147.903 13.0494 148.14 14.1378C148.377 15.2239 150.018 20.8515 150.018 20.8515C150.215 21.4247 150.391 21.4038 150.728 21.4038H157.915L157.903 21.3876L188 21.3922V13.98L187.993 13.9823M155.466 15.7112C155.109 15.7112 154.821 15.4211 154.821 15.0661C154.821 14.711 155.111 14.4209 155.466 14.4209C155.822 14.4209 156.112 14.711 156.112 15.0661C156.112 15.4211 155.822 15.7112 155.466 15.7112ZM185.334 18.3823C184.976 18.3823 184.688 18.0945 184.688 17.7372C184.688 17.3798 184.978 17.092 185.334 17.092C185.689 17.092 185.979 17.3798 185.979 17.7372C185.979 18.0945 185.689 18.3823 185.334 18.3823Z" fill="#2E358F"/>
</g>
<defs>
<clipPath id="clip0_2521_2900">
<rect width="188" height="50.0778" fill="white" transform="translate(0 0.96106)"/>
</clipPath>
</defs>
</svg>
