<svg width="20" height="20" viewBox="0 0 20 20" fill="none" xmlns="http://www.w3.org/2000/svg">
<path d="M16.731 11.4142V9.26637C16.7288 7.60423 16.1068 6.0027 14.9865 4.77487C13.8662 3.54703 12.3282 2.78117 10.6733 2.62703V1.24998C10.6733 1.07147 10.6024 0.900274 10.4761 0.774043C10.3499 0.647817 10.1788 0.576904 10.0002 0.576904C9.82169 0.576904 9.65053 0.647817 9.5243 0.774043C9.39807 0.900274 9.32715 1.07147 9.32715 1.24998V2.62717C7.67223 2.7813 6.13429 3.54714 5.01403 4.77495C3.89376 6.00276 3.27169 7.60425 3.26946 9.26637V11.4141C2.50989 11.5701 1.82737 11.9834 1.33695 12.5841C0.846525 13.1847 0.578178 13.9361 0.577148 14.7115C0.577736 15.2469 0.790664 15.7601 1.16922 16.1387C1.54777 16.5172 2.06103 16.7301 2.59638 16.7308H6.70289C6.85808 17.4908 7.27103 18.1737 7.87184 18.6643C8.47269 19.1548 9.22453 19.4228 10.0002 19.4228C10.7759 19.4228 11.5278 19.1548 12.1286 18.6643C12.7295 18.1737 13.1424 17.4908 13.2975 16.7308H17.4041C17.9395 16.7301 18.4527 16.5172 18.8312 16.1387C19.2098 15.7601 19.4227 15.2469 19.4233 14.7115C19.4222 13.9361 19.1539 13.1848 18.6635 12.5841C18.1731 11.9835 17.4905 11.5703 16.731 11.4142ZM4.61561 9.26637C4.61739 7.85483 5.17889 6.5017 6.17695 5.50363C7.17502 4.50557 8.52815 3.94407 9.93961 3.94229H10.0608C11.4723 3.94407 12.8255 4.50557 13.8235 5.50363C14.8215 6.5017 15.3831 7.85483 15.3848 9.26637V11.3461H4.61561V9.26637ZM10.0002 18.0769C9.58399 18.0756 9.17838 17.9455 8.83907 17.7045C8.49969 17.4635 8.2433 17.1234 8.10507 16.7308H11.8954C11.7571 17.1234 11.5008 17.4635 11.1614 17.7045C10.8221 17.9455 10.4165 18.0756 10.0002 18.0769ZM17.4041 15.3846H2.59638C2.4179 15.3845 2.24676 15.3135 2.12056 15.1874C1.99436 15.0611 1.92341 14.89 1.9233 14.7115C1.92389 14.1761 2.13682 13.6629 2.51537 13.2844C2.89393 12.9058 3.40718 12.6929 3.94253 12.6923H16.0579C16.5933 12.6929 17.1065 12.9058 17.4851 13.2844C17.8636 13.6629 18.0765 14.1761 18.0771 14.7115C18.0771 14.89 18.0061 15.0611 17.8799 15.1874C17.7537 15.3135 17.5825 15.3845 17.4041 15.3846Z" fill="#5D5FEF"/>
</svg>
