<?xml version="1.0" encoding="iso-8859-1"?>
<!-- Uploaded to: SVG Repo, www.svgrepo.com, Generator: SVG Repo Mixer Tools -->
<!DOCTYPE svg PUBLIC "-//W3C//DTD SVG 1.1//EN" "http://www.w3.org/Graphics/SVG/1.1/DTD/svg11.dtd">
<svg fill="#000000" height="800px" width="800px" version="1.1" id="Capa_1" xmlns="http://www.w3.org/2000/svg" xmlns:xlink="http://www.w3.org/1999/xlink" 
	 viewBox="0 0 297.41 297.41" xml:space="preserve">
<g>
	<path d="M163.982,138.935h127.922c3.039,0,5.503-2.464,5.503-5.503c0-35.647-13.877-69.158-39.075-94.357
		C233.136,13.877,199.634,0,163.982,0c-3.039,0-5.503,2.464-5.503,5.503v127.929C158.479,136.471,160.942,138.935,163.982,138.935z
		 M169.484,11.127c63.128,2.804,113.985,53.664,116.794,116.802H169.484V11.127z"/>
	<path d="M133.429,297.41c35.631,0,69.131-13.879,94.331-39.08c25.197-25.2,39.077-58.7,39.08-94.33
		c0-1.459-0.579-2.859-1.611-3.892c-1.032-1.032-2.433-1.612-3.892-1.612h-122.42V36.069c0-3.039-2.465-5.503-5.504-5.503
		c-35.635,0-69.138,13.879-94.335,39.08C13.881,94.849,0.004,128.357,0.004,164c0,35.63,13.878,69.13,39.079,94.33
		C64.285,283.531,97.791,297.41,133.429,297.41z M127.911,41.694V164c0,3.039,2.463,5.502,5.502,5.502h122.299
		c-2.896,64.949-56.641,116.902-122.283,116.902C65.927,286.404,11.01,231.494,11.01,164C11.01,98.339,62.962,44.585,127.911,41.694
		z"/>
</g>
</svg>