<svg width="16" height="17" viewBox="0 0 16 17" fill="none" xmlns="http://www.w3.org/2000/svg">
<g clip-path="url(#clip0_2361_7826)">
<path d="M15.3394 14.856C15.4569 14.9734 15.5156 15.1202 15.5156 15.2963C15.5156 15.4725 15.452 15.6193 15.3247 15.7367C15.1975 15.8541 15.0507 15.9128 14.8844 15.9128C14.718 15.9128 14.5663 15.8541 14.4293 15.7367L9.64401 10.922C8.6067 11.744 7.43239 12.155 6.12107 12.155C4.57489 12.155 3.2489 11.607 2.14309 10.511C1.03728 9.41498 0.484375 8.0841 0.484375 6.51835C0.484375 4.9526 1.03728 3.62171 2.14309 2.52569C3.2489 1.42966 4.57979 0.881649 6.13575 0.881649C7.69171 0.881649 9.01771 1.42966 10.1137 2.52569C11.2098 3.62171 11.7578 4.9526 11.7578 6.51835C11.7578 7.84923 11.3468 9.02355 10.5247 10.0413L15.3394 14.856ZM1.74676 6.51835C1.74676 7.7318 2.17245 8.76422 3.02382 9.61559C3.8752 10.467 4.90762 10.8927 6.12107 10.8927C7.33453 10.8927 8.37184 10.4719 9.233 9.63027C10.0942 8.76911 10.5247 7.7318 10.5247 6.51835C10.5247 5.30489 10.0942 4.27247 9.233 3.4211C8.37184 2.56972 7.33453 2.14403 6.12107 2.14403C5.78835 2.14403 5.45563 2.18318 5.12291 2.26147C4.79019 2.33975 4.48193 2.4474 4.19814 2.5844C3.91434 2.7214 3.64523 2.89266 3.3908 3.09816C3.13636 3.30367 2.90639 3.53364 2.70089 3.78807C2.49538 4.04251 2.32413 4.31162 2.18713 4.59541C2.05012 4.8792 1.94248 5.18746 1.86419 5.52018C1.7859 5.8529 1.74676 6.18563 1.74676 6.51835Z" fill="#7E7E7E"/>
</g>
<defs>
<clipPath id="clip0_2361_7826">
<rect width="16" height="16" fill="white" transform="matrix(1 0 0 -1 0 16.5)"/>
</clipPath>
</defs>
</svg>
